<svg xmlns="http://www.w3.org/2000/svg" viewBox="0 0 600 600"><g id="ELS_Cotton_Farming" data-name="ELS Cotton Farming"><g id="Outline"><path d="M480.87,416.1c-12.14,0-18.62-5.16-23.83-9.3-4.7-3.74-8.41-6.7-16.37-6.7s-11.66,3-16.36,6.7c-5.21,4.14-11.69,9.3-23.84,9.3s-18.62-5.16-23.83-9.3c-4.7-3.74-8.41-6.7-16.36-6.7s-11.66,3-16.36,6.7c-5.21,4.14-11.69,9.3-23.83,9.3s-18.63-5.16-23.84-9.3c-4.7-3.74-8.41-6.7-16.36-6.7s-11.66,3-16.36,6.7c-5.2,4.14-11.68,9.3-23.83,9.3s-18.62-5.16-23.83-9.3c-4.7-3.74-8.41-6.7-16.36-6.7s-11.66,3-16.36,6.7c-5.2,4.14-11.68,9.3-23.83,9.3s-18.63-5.16-23.83-9.3c-4.7-3.74-8.41-6.7-16.36-6.7a6,6,0,0,1,0-12c12.14,0,18.62,5.16,23.83,9.31,4.7,3.74,8.41,6.69,16.36,6.69s11.66-3,16.36-6.69c5.21-4.15,11.69-9.31,23.83-9.31s18.63,5.16,23.83,9.31c4.7,3.74,8.41,6.69,16.36,6.69s11.66-3,16.36-6.69c5.21-4.15,11.69-9.31,23.83-9.31s18.63,5.16,23.84,9.31c4.69,3.74,8.4,6.69,16.36,6.69s11.66-3,16.36-6.69c5.2-4.15,11.69-9.31,23.83-9.31s18.63,5.16,23.83,9.31c4.7,3.74,8.41,6.69,16.36,6.69s11.67-3,16.37-6.69c5.21-4.15,11.69-9.31,23.83-9.31s18.63,5.16,23.84,9.31c4.7,3.74,8.41,6.69,16.36,6.69a6,6,0,0,1,0,12Z"/><path d="M480.87,447.84c-12.14,0-18.62-5.16-23.83-9.3-4.7-3.75-8.41-6.7-16.37-6.7s-11.66,3-16.36,6.7c-5.21,4.14-11.69,9.3-23.84,9.3s-18.62-5.16-23.83-9.31c-4.7-3.74-8.41-6.69-16.36-6.69s-11.66,3-16.36,6.7c-5.21,4.14-11.69,9.3-23.83,9.3s-18.63-5.16-23.84-9.31c-4.7-3.74-8.41-6.69-16.36-6.69s-11.66,3-16.36,6.69c-5.2,4.15-11.68,9.31-23.83,9.31s-18.62-5.16-23.83-9.31c-4.7-3.74-8.41-6.69-16.36-6.69s-11.66,3-16.36,6.69c-5.2,4.15-11.68,9.31-23.83,9.31s-18.63-5.16-23.83-9.31c-4.7-3.74-8.41-6.69-16.36-6.69a6,6,0,0,1,0-12c12.14,0,18.62,5.16,23.83,9.31,4.7,3.74,8.41,6.69,16.36,6.69s11.66-2.95,16.36-6.69c5.21-4.15,11.69-9.31,23.83-9.31s18.63,5.16,23.83,9.31c4.7,3.74,8.41,6.69,16.36,6.69s11.66-2.95,16.36-6.69c5.21-4.15,11.69-9.31,23.83-9.31s18.63,5.16,23.84,9.31c4.69,3.74,8.4,6.69,16.36,6.69s11.66-2.95,16.36-6.69c5.2-4.15,11.69-9.31,23.83-9.31s18.63,5.16,23.83,9.31c4.7,3.74,8.41,6.69,16.36,6.69s11.67-2.95,16.37-6.69c5.21-4.15,11.69-9.31,23.83-9.31s18.63,5.16,23.84,9.31c4.7,3.74,8.41,6.69,16.36,6.69a6,6,0,0,1,0,12Z"/><path d="M497.46,468.39H102.54a6,6,0,0,1-6-6V328.94a6,6,0,0,1,6-6H256.33a6,6,0,0,1,0,12H108.54V456.39H491.46V334.94H343.67a6,6,0,0,1,0-12H497.46a6,6,0,0,1,6,6V462.39A6,6,0,0,1,497.46,468.39Z"/><path d="M336.7,278.74A53,53,0,0,1,300,264.07a53.24,53.24,0,0,1-89.94-38.57,53.61,53.61,0,0,1,37.7-50.92,53.24,53.24,0,0,1,104.48,0A53.24,53.24,0,0,1,336.7,278.74ZM300,249.23a6,6,0,0,1,4.66,2.22,41.23,41.23,0,1,0,41-66.21,6,6,0,0,1-4.67-5.17,41.23,41.23,0,0,0-81.9,0,6,6,0,0,1-4.67,5.17,41.24,41.24,0,1,0,41,66.21A6,6,0,0,1,300,249.23Z"/><path d="M318.56,267.9a50,50,0,0,1-16.75-3.07,6,6,0,0,1-3.66-6.77c.16-.77,4-18.89,17.7-26.3s31-.69,31.7-.4a6,6,0,0,1,3.66,6.77c-.16.77-4,18.89-17.7,26.3h0A31.33,31.33,0,0,1,318.56,267.9Zm12.09-8.75h0Zm-19.07-4c4.52.94,11.06,1.49,16.22-1.3s8.27-8.56,10-12.86c-4.52-.93-11.06-1.49-16.22,1.3S313.27,250.88,311.58,255.17Z"/><path d="M281.44,267.9a31.33,31.33,0,0,1-14.95-3.47h0c-13.71-7.41-17.54-25.53-17.7-26.3a6,6,0,0,1,3.66-6.77c.73-.29,18-7,31.7.4s17.54,25.53,17.7,26.3a6,6,0,0,1-3.66,6.77A50,50,0,0,1,281.44,267.9Zm-9.24-14c5.14,2.78,11.69,2.22,16.22,1.29-1.7-4.28-4.81-10.06-10-12.85s-11.71-2.23-16.22-1.29c1.69,4.28,4.81,10.06,10,12.85Z"/><path d="M300,263.21a5.94,5.94,0,0,1-3.85-1.4c-.6-.5-14.72-12.48-14.72-28.07s14.12-27.57,14.72-28.07a6,6,0,0,1,7.7,0c.6.5,14.72,12.48,14.72,28.07s-14.12,27.57-14.72,28.07A6,6,0,0,1,300,263.21Zm0-44.35c-3,3.53-6.56,9-6.56,14.88s3.6,11.34,6.57,14.88c3-3.53,6.57-9,6.57-14.88S303,222.4,300,218.86Z"/><path d="M300,376.91a6,6,0,0,1-6-6V267.76a6,6,0,0,1,12,0V370.91A6,6,0,0,1,300,376.91Z"/><path d="M280.17,373.91a6,6,0,0,1-6-6l0-10.51a12.27,12.27,0,0,1,.81-5,12.44,12.44,0,0,1,3.31-4.37c3.82-3.5,7.75-7,11.67-10.38a13.17,13.17,0,0,1,5.37-3.09,6,6,0,0,1,3.22,11.56c-.21.15-.57.46-.76.62-3.83,3.3-7.66,6.71-11.38,10.13l-.24.22v.25l0,10.51a6,6,0,0,1-6,6Zm18.07-27.67h0Zm.36-.14Z"/><path d="M320.87,373.91h0a6,6,0,0,1-6-6l0-10.51v-.25l-.23-.22c-3.72-3.42-7.56-6.82-11.39-10.13-.18-.16-.55-.47-.76-.62a6,6,0,0,1,3.23-11.56,13.31,13.31,0,0,1,5.37,3.09c3.92,3.39,7.85,6.88,11.66,10.38a10.84,10.84,0,0,1,4.12,9.34l0,10.52A6,6,0,0,1,320.87,373.91ZM302.8,346.24Zm-.36-.14Z"/></g></g></svg>